<svg id="Layer_1" data-name="Layer 1" xmlns="http://www.w3.org/2000/svg" viewBox="0 0 892.48 351.62"><defs><style>.cls-1{fill:#fc4a1a;}.cls-2,.cls-3,.cls-4,.cls-5{fill:#fff;}.cls-2{fill-opacity:0.6;}.cls-4{fill-opacity:0.2;}.cls-5{fill-rule:evenodd;}</style></defs><title>Artboard 1 c62</title><path d="M315.72,264.78a11.68,11.68,0,0,1-12.41-12.18V109.8a11.62,11.62,0,0,1,3.58-8.72,12.83,12.83,0,0,1,9.31-3.46,11.73,11.73,0,0,1,8.84,3.46,12.05,12.05,0,0,1,3.34,8.72V252.6a12.91,12.91,0,0,1-3.58,8.71A12,12,0,0,1,315.72,264.78ZM421,96.9a9.63,9.63,0,0,1,7.88,3.94,12.91,12.91,0,0,1,3.1,8c0,2.71-1.19,5.25-3.58,7.64L325.52,214.39,324.08,186l87.17-84.53Q415.78,96.91,421,96.9ZM419.84,265a10.43,10.43,0,0,1-8.83-4.54l-59.47-76.66,18.39-18.62,60.66,79a13.65,13.65,0,0,1,2.86,8.36,10.87,10.87,0,0,1-4.29,9.07A14.9,14.9,0,0,1,419.84,265Z"/><path d="M469,122.45q-6.93,0-10-2.51t-3.1-8.47v-3.82q0-6,3.34-8.36t10-2.39q7.17,0,10.27,2.51t3.1,8.24v3.82q0,6.21-3.22,8.59T469,122.45ZM481.21,252.6a12.05,12.05,0,0,1-3.34,8.71,12.39,12.39,0,0,1-17.2,0,12,12,0,0,1-3.34-8.71V150.39a11.8,11.8,0,0,1,3.46-8.71,12.24,12.24,0,0,1,17.08,0,12.07,12.07,0,0,1,3.34,8.71Z"/><path d="M616.37,137.26a11.44,11.44,0,0,1,8.6,3.46,12.09,12.09,0,0,1,3.34,8.72V252.6a12.05,12.05,0,0,1-3.34,8.71,12.39,12.39,0,0,1-17.2,0,12,12,0,0,1-3.34-8.71V235.41l5,1q0,4.06-3.46,9.43a42.78,42.78,0,0,1-9.43,10.15,54.58,54.58,0,0,1-14.09,8A46.8,46.8,0,0,1,565,267.17a53.41,53.41,0,0,1-29.61-8.48,59.53,59.53,0,0,1-20.78-23.28Q507,220.61,507,201.73q0-19.33,7.64-34a59.19,59.19,0,0,1,20.66-23.05,54.37,54.37,0,0,1,47.76-5,55,55,0,0,1,15.16,8.59,44.68,44.68,0,0,1,10,11.11,21.37,21.37,0,0,1,3.58,11.1l-7.4.72V149.44a12.15,12.15,0,0,1,3.34-8.6A11.24,11.24,0,0,1,616.37,137.26ZM567.65,245.2a34.91,34.91,0,0,0,19.82-5.73,38.43,38.43,0,0,0,13.38-15.65,53.53,53.53,0,0,0,0-44.18,37.61,37.61,0,0,0-13.38-15.52,35.45,35.45,0,0,0-19.82-5.61,34.45,34.45,0,0,0-19.46,5.61,38.92,38.92,0,0,0-13.37,15.41,52.49,52.49,0,0,0,0,44.29,39.65,39.65,0,0,0,13.37,15.65A33.93,33.93,0,0,0,567.65,245.2Z"/><path d="M726.45,136.3q16.95,0,26.27,7a36.75,36.75,0,0,1,13,18.86,88.34,88.34,0,0,1,3.7,26.39v64a11.79,11.79,0,0,1-3.47,8.71,11.52,11.52,0,0,1-8.47,3.47,11.85,11.85,0,0,1-12.18-12.18V188.84a46.36,46.36,0,0,0-2.39-15.4,21.83,21.83,0,0,0-8.12-10.87q-5.73-4-16.24-4.06a35.23,35.23,0,0,0-17.19,4.06,30.42,30.42,0,0,0-11.58,10.87,28.78,28.78,0,0,0-4.18,15.4V252.6a11.83,11.83,0,0,1-3.46,8.71,11.54,11.54,0,0,1-8.48,3.47A11.85,11.85,0,0,1,661.5,252.6V151.35a11.83,11.83,0,0,1,12.18-12.18,11.57,11.57,0,0,1,8.48,3.46,11.86,11.86,0,0,1,3.46,8.72v13.37l-4.3,2.39a34.41,34.41,0,0,1,5.85-10.63,57.81,57.81,0,0,1,10.15-10,49.68,49.68,0,0,1,13.37-7.4A45,45,0,0,1,726.45,136.3Z"/><rect class="cls-1" x="104.3" y="119.65" width="50.38" height="50.38"/><rect class="cls-1" x="170.82" y="104.82" width="54.56" height="54.56"/><rect class="cls-1" x="110.55" y="230.37" width="54.47" height="54.47"/><rect class="cls-1" x="67.69" y="180.26" width="31.25" height="31.25"/><rect class="cls-1" x="134.66" y="183.16" width="31.25" height="31.25"/><rect class="cls-1" x="112.34" y="72.88" width="26.23" height="26.23"/><rect class="cls-1" x="187.34" y="200.8" width="23.22" height="23.22"/><path class="cls-2" d="M128.73,129.1v11.64l9.84,4.39Z"/><path class="cls-3" d="M128.73,129.1l-9.84,16,9.84-4.39Z"/><path class="cls-2" d="M128.73,152.68v7.91L138.57,147Z"/><path class="cls-3" d="M128.73,160.59v-7.91L118.89,147Z"/><path class="cls-4" d="M128.73,150.85l9.84-5.72-9.84-4.39Z"/><path class="cls-2" d="M118.89,145.13l9.84,5.72V140.74Z"/><path class="cls-3" d="M210.49,128.87c.52-3.47-2.12-5.33-5.72-6.57l1.17-4.69-2.86-.71-1.14,4.56-2.29-.53,1.15-4.6-2.85-.71-1.17,4.69-1.83-.43v0l-3.93-1-.76,3.05s2.12.48,2.07.52a1.51,1.51,0,0,1,1.33,1.66l-1.34,5.36L190.46,137a1,1,0,0,1-1.31.68s-2.08-.52-2.08-.52l-1.42,3.27,3.72.93,2,.52-1.19,4.75,2.86.71,1.17-4.7c.78.22,1.53.41,2.27.6l-1.16,4.67,2.85.71,1.19-4.74c4.87.93,8.53.55,10.07-3.85,1.24-3.55-.06-5.59-2.62-6.93a4.55,4.55,0,0,0,3.64-4.19ZM204,138c-.89,3.54-6.86,1.63-8.79,1.15l1.56-6.29c1.94.48,8.15,1.44,7.23,5.14Zm.88-9.2c-.81,3.22-5.78,1.58-7.39,1.18l1.42-5.7C200.5,124.7,205.69,125.45,204.85,128.82Z"/><g id="Layer_2" data-name="Layer 2"><g id="Layer_1-2" data-name="Layer 1-2"><path class="cls-3" d="M156.8,190.68h2.83l-5.88,5.83a5.5,5.5,0,0,1-7.72,0l-5.89-5.83H143l4.47,4.43a3.48,3.48,0,0,0,4.89,0Z"/><path class="cls-3" d="M142.93,206.88H140.1L146,201a5.49,5.49,0,0,1,7.71,0l5.93,5.86h-2.83l-4.51-4.46a3.48,3.48,0,0,0-4.89,0Z"/></g></g><path class="cls-3" d="M76.09,200.63a.71.71,0,0,1,.5-.21H93.67a.35.35,0,0,1,.25.6l-3.38,3.37a.69.69,0,0,1-.49.21H73a.35.35,0,0,1-.24-.6Z"/><path class="cls-3" d="M76.09,188a.73.73,0,0,1,.5-.21H93.67a.35.35,0,0,1,.25.6l-3.38,3.37a.69.69,0,0,1-.49.21H73a.35.35,0,0,1-.24-.6Z"/><path class="cls-3" d="M90.54,194.29a.69.69,0,0,0-.49-.21H73a.35.35,0,0,0-.24.6l3.37,3.37a.71.71,0,0,0,.5.21H93.67a.35.35,0,0,0,.25-.6Z"/><path class="cls-3" d="M144.87,261.37c0-3.75-2.25-5-6.76-5.58-3.22-.43-3.86-1.29-3.86-2.79s1.07-2.47,3.22-2.47c1.93,0,3,.65,3.54,2.26a.81.81,0,0,0,.75.53h1.72a.73.73,0,0,0,.75-.75v-.11a5.37,5.37,0,0,0-4.83-4.4v-2.57c0-.43-.32-.76-.86-.86h-1.61c-.43,0-.75.32-.86.86V248c-3.21.43-5.25,2.58-5.25,5.26,0,3.54,2.14,4.94,6.65,5.48,3,.53,4,1.18,4,2.89s-1.5,2.9-3.54,2.9c-2.79,0-3.76-1.18-4.08-2.79a.78.78,0,0,0-.75-.64h-1.82a.74.74,0,0,0-.76.75v.11c.43,2.68,2.15,4.61,5.69,5.15v2.58c0,.43.32.75.86.85h1.61c.43,0,.75-.32.86-.85v-2.58c3.21-.54,5.36-2.79,5.36-5.69Z"/><path class="cls-3" d="M132.31,272.64a16.06,16.06,0,0,1,0-30.16,1.07,1.07,0,0,0,.65-1.07v-1.5a.82.82,0,0,0-.65-.86.65.65,0,0,0-.43.11,19.32,19.32,0,0,0,0,36.81.66.66,0,0,0,1-.43c.11-.11.11-.21.11-.43v-1.5A1.41,1.41,0,0,0,132.31,272.64Zm11.38-33.48a.65.65,0,0,0-1,.43c-.11.1-.11.21-.11.43v1.5a1.42,1.42,0,0,0,.65,1.07,16.06,16.06,0,0,1,0,30.16,1.07,1.07,0,0,0-.65,1.07v1.5a.82.82,0,0,0,.65.86.63.63,0,0,0,.43-.11,19.39,19.39,0,0,0,0-36.91Z"/><path class="cls-5" d="M195.38,216.6h-1.84c-.39,0-.58,0-.69-.08a.45.45,0,0,1-.22-.36,1.56,1.56,0,0,1,.28-.64l4.55-8c.19-.34.29-.51.41-.57a.47.47,0,0,1,.43,0c.12.06.22.23.41.57l.93,1.63h0a3.13,3.13,0,0,1,.36.74,1.43,1.43,0,0,1,0,.65,3.34,3.34,0,0,1-.36.75l-2.39,4.22h0a3.2,3.2,0,0,1-.46.7,1.34,1.34,0,0,1-.57.32A3,3,0,0,1,195.38,216.6Z"/><path class="cls-5" d="M200,216.6h2.63c.39,0,.59,0,.7-.08a.47.47,0,0,0,.22-.37,1.58,1.58,0,0,0-.27-.61l0,0L202,213.25l0,0c-.18-.31-.28-.47-.4-.53a.45.45,0,0,0-.42,0c-.12.06-.22.23-.41.56l-1.32,2.26h0c-.19.33-.29.5-.28.63a.46.46,0,0,0,.21.37C199.44,216.6,199.64,216.6,200,216.6Z"/><polygon class="cls-5" points="122.79 77.23 120.4 86.15 118.51 86.9 117.83 89.44 119.75 88.79 118.48 94.06 132.24 94.09 133.08 90.71 124.71 90.71 125.8 86.65 128.06 85.69 128.71 83.21 126.51 83.95 128.25 77.32 122.79 77.23"/></svg>